<svg width="34" height="35" viewBox="0 0 34 35" fill="none" xmlns="http://www.w3.org/2000/svg">
<path d="M24.8 0.370361H6.2C2.77583 0.370361 0 3.23574 0 6.77036V25.9704C0 29.505 2.77583 32.3704 6.2 32.3704H24.8C28.2242 32.3704 31 29.505 31 25.9704V6.77036C31 3.23574 28.2242 0.370361 24.8 0.370361Z" fill="#6F78D4"/>
<path d="M27.9565 4.37036H9.04348C6.25804 4.37036 4 6.6284 4 9.41384V28.3269C4 31.1123 6.25804 33.3704 9.04348 33.3704H27.9565C30.742 33.3704 33 31.1123 33 28.3269V9.41384C33 6.6284 30.742 4.37036 27.9565 4.37036Z" fill="#8A92E3" stroke="#6F78D4" stroke-width="2"/>
<path d="M13 25.2764V12.4979H16.706C17.8481 12.4979 18.7163 12.8236 19.3107 13.4751C19.9167 14.114 20.2197 14.9721 20.2197 16.0496V17.0455C20.2197 18.1229 19.9167 18.9874 19.3107 19.6388C18.7163 20.2903 17.8481 20.616 16.706 20.616H14.5209V25.2764H13ZM16.706 14.0388H14.5209V19.0939H16.706C17.3353 19.0939 17.8132 18.9122 18.1395 18.5489C18.4774 18.1856 18.6464 17.6845 18.6464 17.0455V16.0496C18.6464 15.4231 18.4774 14.9346 18.1395 14.5838C17.8132 14.2205 17.3353 14.0388 16.706 14.0388ZM22.5352 23.0214V11.3704H23.9686V22.9462C23.9686 23.2845 24.0152 23.5413 24.1085 23.7167C24.2133 23.8795 24.4173 23.961 24.7203 23.961H25V25.3704H24.5979C23.8288 25.3704 23.2927 25.1511 22.9897 24.7126C22.6866 24.2742 22.5352 23.7104 22.5352 23.0214Z" fill="white"/>
</svg>
